<svg viewBox="0 0 800 800" xmlns="http://www.w3.org/2000/svg"><path d="M358.4975566772062,281.5652736556242 L358.56543782529513,-1.1992280100347443 M113.85389896460975,422.65359049503815 L113.51335966755897,139.65250182438137 M358.4975566772062,281.5652736556242 L113.85389896460975,422.65359049503815 M358.56543782529513,-1.1992280100347443 L113.51335966755897,139.65250182438137 M276.94954489234334,516.974106434971 L276.8812852604857,233.81529102732807 M113.85389896460975,422.65359049503815 L276.94954489234334,516.974106434971 M113.51335966755897,139.65250182438137 L276.8812852604857,233.81529102732807 M276.94954489234334,516.974106434971 L521.5932028146825,375.5719111276322 M521.9333636293688,92.64968535019841 L276.8812852604857,233.81529102732807 M521.5932028146825,375.5719111276322 L521.9333636293688,92.64968535019841 M521.5932028146825,375.5719111276322 L358.4975566772062,281.5652736556242 M521.9333636293688,92.64968535019841 L358.56543782529513,-1.1992280100347443" stroke="black"  stroke-width="4"  fill="red"/>
<path d="M440.1359507788569,422.65359049503815 L440.3402743570874,139.65250182438137 M195.22008833994113,564.2131179668132 L195.0150812147525,280.97543900700293 M440.1359507788569,422.65359049503815 L195.22008833994113,564.2131179668132 M440.3402743570874,139.65250182438137 L195.0150812147525,280.97543900700293 M358.6790774365428,658.8490870150007 L358.7475656800617,375.453681317387 M195.22008833994113,564.2131179668132 L358.6790774365428,658.8490870150007 M195.0150812147525,280.97543900700293 L358.7475656800617,375.453681317387 M358.6790774365428,658.8490870150007 L603.5946365417107,516.974106434971 M604.072453964714,233.81529102732816 L358.7475656800617,375.453681317387 M603.5946365417107,516.974106434971 L604.072453964714,233.81529102732816 M603.5946365417107,516.974106434971 L440.1359507788569,422.65359049503815 M604.072453964714,233.81529102732816 L440.3402743570874,139.65250182438137" stroke="black"  stroke-width="4"  fill="red"/>
<path d="M522.0470030294696,564.2131179668132 L522.3886815714504,280.97543900700293 M276.858481303927,706.2462206629153 L276.78991660125524,422.77195207518486 M522.0470030294696,564.2131179668132 L276.858481303927,706.2462206629153 M522.3886815714504,280.97543900700293 L276.78991660125524,422.77195207518486 M440.6823343431565,801.1992280100347 L440.8884883599213,517.5672353433926 M276.858481303927,706.2462206629153 L440.6823343431565,801.1992280100347 M276.78991660125524,422.77195207518486 L440.8884883599213,517.5672353433926 M685.8702461407711,658.8490870150007 L686.4866403324411,375.453681317387 M440.6823343431565,801.1992280100347 L685.8702461407711,658.8490870150007 M440.8884883599213,517.5672353433926 L686.4866403324411,375.453681317387 M685.8702461407711,658.8490870150007 L522.0470030294696,564.2131179668132 M686.4866403324411,375.453681317387 L522.3886815714504,280.97543900700293" stroke="black"  stroke-width="4"  fill="red"/></svg>